<svg width="121" height="59" viewBox="0 0 121 59" fill="none" xmlns="http://www.w3.org/2000/svg">
<path d="M0 35.1875L0 0.749999H5.16863V35.1875H0Z" fill="#212121"/>
<path d="M17.4629 27.75C15.8149 27.75 14.2044 27.4875 12.6313 26.9625C11.0583 26.4375 9.70992 25.6875 8.5863 24.7125L10.459 21.5625C11.6575 22.4125 12.8186 23.0625 13.9422 23.5125C15.0908 23.9375 16.2269 24.15 17.3505 24.15C18.3493 24.15 19.1358 23.9625 19.7101 23.5875C20.2844 23.2125 20.5715 22.675 20.5715 21.975C20.5715 21.275 20.2345 20.7625 19.5603 20.4375C18.8861 20.1125 17.7875 19.7375 16.2643 19.3125C14.9909 18.9625 13.9047 18.625 13.0059 18.3C12.107 17.975 11.3829 17.6125 10.8335 17.2125C10.2842 16.7875 9.8847 16.3125 9.63501 15.7875C9.38532 15.2375 9.26047 14.5875 9.26047 13.8375C9.26047 12.8375 9.44774 11.9375 9.82228 11.1375C10.2218 10.3375 10.7711 9.6625 11.4702 9.1125C12.1694 8.5375 12.9809 8.1 13.9047 7.8C14.8536 7.5 15.8773 7.35 16.976 7.35C18.4492 7.35 19.8225 7.5625 21.0959 7.9875C22.3943 8.4125 23.5803 9.1 24.654 10.05L22.6315 13.0875C21.6327 12.3375 20.6589 11.7875 19.7101 11.4375C18.7862 11.0875 17.8624 10.9125 16.9385 10.9125C16.0896 10.9125 15.3779 11.0875 14.8036 11.4375C14.2294 11.7875 13.9422 12.35 13.9422 13.125C13.9422 13.475 14.0046 13.7625 14.1295 13.9875C14.2793 14.2125 14.504 14.4125 14.8036 14.5875C15.1033 14.7625 15.4903 14.9375 15.9647 15.1125C16.4641 15.2625 17.0758 15.425 17.8 15.6C19.1483 15.95 20.2969 16.3 21.2457 16.65C22.2195 17 23.006 17.4 23.6053 17.85C24.2295 18.3 24.679 18.825 24.9536 19.425C25.2533 20 25.4031 20.7 25.4031 21.525C25.4031 23.45 24.6915 24.975 23.2682 26.1C21.845 27.2 19.9099 27.75 17.4629 27.75Z" fill="#212121"/>
<path d="M34.0201 27.75C33.0713 27.75 32.1849 27.6 31.3609 27.3C30.5369 26.975 29.8253 26.5375 29.226 25.9875C28.6268 25.4125 28.1523 24.75 27.8028 24C27.4782 23.25 27.3159 22.425 27.3159 21.525C27.3159 20.6 27.5156 19.75 27.9151 18.975C28.3396 18.175 28.9139 17.5 29.638 16.95C30.3871 16.4 31.2735 15.975 32.2972 15.675C33.321 15.35 34.4446 15.1875 35.6681 15.1875C36.542 15.1875 37.391 15.2625 38.2149 15.4125C39.0639 15.5625 39.813 15.775 40.4622 16.05V14.925C40.4622 13.625 40.0876 12.625 39.3386 11.925C38.6145 11.225 37.5283 10.875 36.0801 10.875C35.0314 10.875 34.0076 11.0625 33.0089 11.4375C32.0101 11.8125 30.9863 12.3625 29.9376 13.0875L28.402 9.9C30.9239 8.225 33.6456 7.3875 36.567 7.3875C39.3885 7.3875 41.5733 8.0875 43.1214 9.4875C44.6945 10.8625 45.481 12.8625 45.481 15.4875V21.6C45.481 22.125 45.5684 22.5 45.7432 22.725C45.9429 22.95 46.255 23.075 46.6795 23.1V27.375C45.8306 27.55 45.094 27.6375 44.4697 27.6375C43.5209 27.6375 42.7843 27.425 42.26 27C41.7606 26.575 41.4485 26.0125 41.3236 25.3125L41.2113 24.225C40.3373 25.375 39.2761 26.25 38.0277 26.85C36.7792 27.45 35.4434 27.75 34.0201 27.75ZM35.4434 24.075C36.2923 24.075 37.0913 23.925 37.8404 23.625C38.6145 23.325 39.2137 22.925 39.6382 22.425C40.1875 22 40.4622 21.525 40.4622 21V18.75C39.8629 18.525 39.2137 18.35 38.5146 18.225C37.8154 18.075 37.1413 18 36.4921 18C35.1937 18 34.1325 18.3 33.3085 18.9C32.4845 19.475 32.0725 20.2125 32.0725 21.1125C32.0725 21.9625 32.3971 22.675 33.0463 23.25C33.6955 23.8 34.4945 24.075 35.4434 24.075Z" fill="#212121"/>
<path d="M50.1709 27.375V7.725H55.1897V27.375H50.1709ZM50.1709 4.9875V0H55.1897V4.9875H50.1709Z" fill="#212121"/>
<path d="M65.0732 27.75C64.1243 27.75 63.2379 27.6 62.414 27.3C61.59 26.975 60.8783 26.5375 60.2791 25.9875C59.6798 25.4125 59.2054 24.75 58.8558 24C58.5312 23.25 58.3689 22.425 58.3689 21.525C58.3689 20.6 58.5687 19.75 58.9682 18.975C59.3927 18.175 59.967 17.5 60.6911 16.95C61.4402 16.4 62.3266 15.975 63.3503 15.675C64.374 15.35 65.4977 15.1875 66.7211 15.1875C67.5951 15.1875 68.444 15.2625 69.268 15.4125C70.117 15.5625 70.866 15.775 71.5152 16.05V14.925C71.5152 13.625 71.1407 12.625 70.3916 11.925C69.6675 11.225 68.5814 10.875 67.1331 10.875C66.0844 10.875 65.0607 11.0625 64.0619 11.4375C63.0632 11.8125 62.0394 12.3625 60.9907 13.0875L59.4551 9.9C61.977 8.225 64.6986 7.3875 67.62 7.3875C70.4416 7.3875 72.6264 8.0875 74.1745 9.4875C75.7475 10.8625 76.5341 12.8625 76.5341 15.4875V21.6C76.5341 22.125 76.6215 22.5 76.7962 22.725C76.996 22.95 77.3081 23.075 77.7326 23.1V27.375C76.8836 27.55 76.147 27.6375 75.5228 27.6375C74.574 27.6375 73.8374 27.425 73.313 27C72.8136 26.575 72.5015 26.0125 72.3767 25.3125L72.2643 24.225C71.3904 25.375 70.3292 26.25 69.0807 26.85C67.8323 27.45 66.4964 27.75 65.0732 27.75ZM66.4964 24.075C67.3454 24.075 68.1444 23.925 68.8935 23.625C69.6675 23.325 70.2668 22.925 70.6913 22.425C71.2406 22 71.5152 21.525 71.5152 21V18.75C70.916 18.525 70.2668 18.35 69.5676 18.225C68.8685 18.075 68.1943 18 67.5451 18C66.2467 18 65.1855 18.3 64.3616 18.9C63.5376 19.475 63.1256 20.2125 63.1256 21.1125C63.1256 21.9625 63.4502 22.675 64.0994 23.25C64.7486 23.8 65.5476 24.075 66.4964 24.075Z" fill="#212121"/>
<path d="M99.464 27.375H94.4452V16.35C94.4452 14.8 94.1581 13.6625 93.5838 12.9375C93.0095 12.1875 92.198 11.8125 91.1493 11.8125C90.6998 11.8125 90.2254 11.9125 89.726 12.1125C89.2266 12.3125 88.7522 12.6 88.3028 12.975C87.8533 13.325 87.4413 13.75 87.0668 14.25C86.6923 14.75 86.4176 15.3 86.2428 15.9V27.375H81.224V0H86.2428V11.3625C86.9669 10.0875 87.9407 9.1125 89.1642 8.4375C90.4127 7.7375 91.786 7.3875 93.2841 7.3875C94.5576 7.3875 95.5938 7.6125 96.3928 8.0625C97.1918 8.4875 97.8161 9.0625 98.2655 9.7875C98.7149 10.5125 99.0271 11.3375 99.2018 12.2625C99.3766 13.1875 99.464 14.1375 99.464 15.1125V27.375Z" fill="#212121"/>
<path d="M22.36 32V58.625H17.2288V47.2625H5.16863V58.625H0V32H5.16863V42.7625H17.2288V32H22.36Z" fill="#212121"/>
<path d="M33.4132 59C31.3907 59 29.8551 58.35 28.8064 57.05C27.7577 55.75 27.2334 53.825 27.2334 51.275V38.975H32.2522V50.1875C32.2522 53.2125 33.3383 54.725 35.5107 54.725C36.4845 54.725 37.4208 54.4375 38.3197 53.8625C39.2436 53.2625 39.9926 52.3625 40.5669 51.1625V38.975H45.5857V52.85C45.5857 53.375 45.6731 53.75 45.8479 53.975C46.0477 54.2 46.3598 54.325 46.7843 54.35V58.625C46.2849 58.725 45.8604 58.7875 45.5108 58.8125C45.1862 58.8375 44.8866 58.85 44.612 58.85C43.7131 58.85 42.9765 58.65 42.4022 58.25C41.8528 57.825 41.5282 57.25 41.4284 56.525L41.316 54.95C40.4421 56.3 39.3185 57.3125 37.9452 57.9875C36.5719 58.6625 35.0612 59 33.4132 59Z" fill="#212121"/>
<path d="M68.8133 58.625H63.7945V47.6C63.7945 46.025 63.5198 44.875 62.9705 44.15C62.4212 43.425 61.6596 43.0625 60.6858 43.0625C60.1864 43.0625 59.6746 43.1625 59.1502 43.3625C58.6258 43.5625 58.1265 43.85 57.652 44.225C57.2026 44.575 56.7906 45 56.4161 45.5C56.0415 46 55.7669 46.55 55.5921 47.15V58.625H50.5733V38.975H55.1052V42.6125C55.8293 41.3625 56.878 40.3875 58.2513 39.6875C59.6246 38.9875 61.1727 38.6375 62.8956 38.6375C64.1191 38.6375 65.1178 38.8625 65.8919 39.3125C66.6659 39.7625 67.2652 40.35 67.6897 41.075C68.1142 41.8 68.4013 42.625 68.5511 43.55C68.7259 44.475 68.8133 45.4125 68.8133 46.3625V58.625Z" fill="#212121"/>
<path d="M84.7549 57.6125C84.0807 57.9125 83.2567 58.2125 82.2829 58.5125C81.3091 58.8125 80.2854 58.9625 79.2117 58.9625C78.5126 58.9625 77.8509 58.875 77.2267 58.7C76.6274 58.525 76.0906 58.25 75.6161 57.875C75.1667 57.475 74.8046 56.975 74.53 56.375C74.2553 55.75 74.118 55 74.118 54.125V42.8375H71.5337V38.975H74.118V32.6H79.1368V38.975H83.2567V42.8375H79.1368V52.4375C79.1368 53.1375 79.3116 53.6375 79.6612 53.9375C80.0357 54.2125 80.4852 54.35 81.0095 54.35C81.5339 54.35 82.0457 54.2625 82.5451 54.0875C83.0445 53.9125 83.444 53.7625 83.7436 53.6375L84.7549 57.6125Z" fill="#212121"/>
<path d="M95.9946 59C94.4215 59 92.9983 58.7375 91.7248 58.2125C90.4514 57.6625 89.3652 56.925 88.4663 56C87.5674 55.075 86.8683 54 86.3689 52.775C85.8945 51.55 85.6573 50.2625 85.6573 48.9125C85.6573 47.5125 85.8945 46.2 86.3689 44.975C86.8433 43.725 87.53 42.6375 88.4289 41.7125C89.3278 40.7625 90.4139 40.0125 91.6874 39.4625C92.9858 38.9125 94.434 38.6375 96.032 38.6375C97.63 38.6375 99.0533 38.9125 100.302 39.4625C101.575 40.0125 102.649 40.75 103.523 41.675C104.422 42.6 105.096 43.675 105.545 44.9C106.02 46.125 106.257 47.4 106.257 48.725C106.257 49.05 106.244 49.3625 106.219 49.6625C106.219 49.9625 106.195 50.2125 106.145 50.4125H90.9757C91.0507 51.1875 91.2379 51.875 91.5376 52.475C91.8372 53.075 92.2242 53.5875 92.6986 54.0125C93.173 54.4375 93.7099 54.7625 94.3091 54.9875C94.9084 55.2125 95.5326 55.325 96.1818 55.325C97.1806 55.325 98.1169 55.0875 98.9909 54.6125C99.8898 54.1125 100.502 53.4625 100.826 52.6625L105.133 53.8625C104.409 55.3625 103.248 56.6 101.65 57.575C100.077 58.525 98.1919 59 95.9946 59ZM101.088 47.15C100.963 45.675 100.414 44.5 99.4403 43.625C98.4915 42.725 97.3304 42.275 95.9571 42.275C95.2829 42.275 94.6462 42.4 94.047 42.65C93.4727 42.875 92.9608 43.2 92.5114 43.625C92.0619 44.05 91.6874 44.5625 91.3877 45.1625C91.1131 45.7625 90.9508 46.425 90.9008 47.15H101.088Z" fill="#212121"/>
<path d="M121 43.325C119.477 43.35 118.116 43.65 116.918 44.225C115.719 44.775 114.858 45.6125 114.333 46.7375V58.625H109.314V38.975H113.921V43.175C114.271 42.5 114.683 41.9 115.157 41.375C115.632 40.825 116.143 40.35 116.693 39.95C117.242 39.55 117.791 39.25 118.341 39.05C118.915 38.825 119.464 38.7125 119.989 38.7125C120.263 38.7125 120.463 38.7125 120.588 38.7125C120.738 38.7125 120.875 38.725 121 38.75V43.325Z" fill="#212121"/>
</svg>
