<?xml version="1.0" encoding="UTF-8" standalone="no"?>
<!DOCTYPE svg PUBLIC "-//W3C//DTD SVG 1.1//EN" "http://www.w3.org/Graphics/SVG/1.1/DTD/svg11.dtd">
<svg width="100%" height="100%" viewBox="0 0 245 125" version="1.1" xmlns="http://www.w3.org/2000/svg" xmlns:xlink="http://www.w3.org/1999/xlink" xml:space="preserve" xmlns:serif="http://www.serif.com/" style="fill-rule:evenodd;clip-rule:evenodd;stroke-linejoin:round;stroke-miterlimit:2;">
    <g transform="matrix(1,0,0,1,-515.928,-12.594)">
        <g transform="matrix(66.6667,0,0,138.762,511.924,129.398)">
            <rect x="0.06" y="-0.825" width="0.188" height="0.825" style="fill-rule:nonzero;"/>
        </g>
        <g transform="matrix(66.6667,0,0,66.6667,534.457,69.9232)">
            <path d="M0.283,-0.528C0.148,-0.528 0.059,-0.468 0.059,-0.363C0.059,-0.286 0.111,-0.25 0.163,-0.223C0.221,-0.193 0.277,-0.19 0.277,-0.153C0.277,-0.119 0.247,-0.116 0.222,-0.116C0.165,-0.116 0.095,-0.175 0.095,-0.175L0.023,-0.054C0.023,-0.054 0.097,0.015 0.221,0.015C0.326,0.015 0.464,-0.009 0.464,-0.16C0.464,-0.265 0.376,-0.303 0.308,-0.324C0.264,-0.338 0.228,-0.346 0.228,-0.373C0.228,-0.397 0.244,-0.404 0.283,-0.404C0.337,-0.404 0.397,-0.372 0.397,-0.372L0.455,-0.488C0.455,-0.488 0.382,-0.528 0.283,-0.528Z" style="fill-rule:nonzero;"/>
        </g>
        <g transform="matrix(66.6667,0,0,66.6667,569.257,69.9232)">
            <path d="M0.023,-0.256C0.023,-0.106 0.128,0.015 0.278,0.015C0.348,0.015 0.408,-0.016 0.446,-0.058L0.448,-0.058L0.448,0L0.623,0L0.623,-0.513L0.446,-0.513L0.446,-0.464C0.404,-0.505 0.347,-0.528 0.278,-0.528C0.128,-0.528 0.023,-0.406 0.023,-0.256ZM0.211,-0.256C0.211,-0.327 0.264,-0.377 0.331,-0.377C0.397,-0.377 0.45,-0.327 0.45,-0.256C0.45,-0.186 0.4,-0.136 0.331,-0.136C0.259,-0.136 0.211,-0.186 0.211,-0.256Z" style="fill-rule:nonzero;"/>
        </g>
        <g transform="matrix(66.6667,0,0,66.6667,616.791,69.9232)">
            <path d="M0.151,-0.83C0.093,-0.83 0.046,-0.783 0.046,-0.725C0.046,-0.667 0.093,-0.62 0.151,-0.62C0.209,-0.62 0.256,-0.667 0.256,-0.725C0.256,-0.783 0.209,-0.83 0.151,-0.83ZM0.06,-0.513L0.237,-0.513L0.237,0L0.06,0L0.06,-0.513Z" style="fill-rule:nonzero;"/>
        </g>
        <g transform="matrix(66.6667,0,0,66.6667,638.924,69.9232)">
            <path d="M0.023,-0.256C0.023,-0.106 0.128,0.015 0.278,0.015C0.348,0.015 0.408,-0.016 0.446,-0.058L0.448,-0.058L0.448,0L0.623,0L0.623,-0.513L0.446,-0.513L0.446,-0.464C0.404,-0.505 0.347,-0.528 0.278,-0.528C0.128,-0.528 0.023,-0.406 0.023,-0.256ZM0.211,-0.256C0.211,-0.327 0.264,-0.377 0.331,-0.377C0.397,-0.377 0.45,-0.327 0.45,-0.256C0.45,-0.186 0.4,-0.136 0.331,-0.136C0.259,-0.136 0.211,-0.186 0.211,-0.256Z" style="fill-rule:nonzero;"/>
        </g>
        <g transform="matrix(66.6667,0,0,66.6667,686.457,69.9232)">
            <path d="M0.06,0L0.237,0L0.237,-0.29C0.237,-0.341 0.289,-0.39 0.342,-0.39C0.399,-0.39 0.434,-0.341 0.434,-0.29L0.434,0L0.611,0L0.611,-0.338C0.611,-0.481 0.48,-0.528 0.386,-0.528C0.33,-0.528 0.279,-0.499 0.239,-0.459L0.237,-0.459L0.237,-0.86L0.06,-0.86L0.06,0Z" style="fill-rule:nonzero;"/>
        </g>
        <g transform="matrix(66.6667,0,0,66.6667,511.924,136.59)">
            <path d="M0.248,-0.331L0.514,-0.331L0.514,0L0.702,0L0.702,-0.825L0.514,-0.825L0.514,-0.496L0.248,-0.496L0.248,-0.825L0.06,-0.825L0.06,0L0.248,0L0.248,-0.331Z" style="fill-rule:nonzero;"/>
        </g>
        <g transform="matrix(66.6667,0,0,66.6667,564.724,136.59)">
            <path d="M0.227,-0.513L0.05,-0.513L0.05,-0.226C0.05,-0.054 0.136,0.015 0.328,0.015C0.52,0.015 0.606,-0.054 0.606,-0.226L0.606,-0.513L0.429,-0.513L0.429,-0.269C0.429,-0.168 0.402,-0.129 0.328,-0.129C0.254,-0.129 0.227,-0.168 0.227,-0.269L0.227,-0.513Z" style="fill-rule:nonzero;"/>
        </g>
        <g transform="matrix(66.6667,0,0,66.6667,610.457,136.59)">
            <path d="M0.06,0L0.237,0L0.237,-0.29C0.237,-0.341 0.289,-0.39 0.342,-0.39C0.399,-0.39 0.434,-0.341 0.434,-0.29L0.434,0L0.611,0L0.611,-0.338C0.611,-0.481 0.48,-0.528 0.386,-0.528C0.33,-0.528 0.279,-0.499 0.239,-0.459L0.237,-0.459L0.237,-0.513L0.06,-0.513L0.06,0Z" style="fill-rule:nonzero;"/>
        </g>
        <g transform="matrix(66.6667,0,0,66.6667,656.124,136.59)">
            <path d="M0.09,-0.513L0.016,-0.513L0.016,-0.378L0.09,-0.378L0.09,-0.181C0.09,-0.09 0.124,0.015 0.265,0.015C0.338,0.015 0.395,-0.017 0.395,-0.017L0.351,-0.16C0.351,-0.16 0.33,-0.144 0.307,-0.144C0.279,-0.144 0.267,-0.167 0.267,-0.215L0.267,-0.378L0.375,-0.378L0.375,-0.513L0.267,-0.513L0.267,-0.704L0.09,-0.704L0.09,-0.513Z" style="fill-rule:nonzero;"/>
        </g>
        <g transform="matrix(66.6667,0,0,66.6667,684.457,136.59)">
            <path d="M0.579,-0.232C0.58,-0.238 0.58,-0.249 0.58,-0.256C0.58,-0.436 0.461,-0.528 0.305,-0.528C0.15,-0.528 0.023,-0.406 0.023,-0.256C0.023,-0.107 0.15,0.015 0.305,0.015C0.419,0.015 0.513,-0.022 0.571,-0.119L0.443,-0.183C0.4,-0.137 0.375,-0.126 0.318,-0.126C0.273,-0.126 0.207,-0.153 0.207,-0.232L0.579,-0.232ZM0.212,-0.33C0.215,-0.377 0.249,-0.413 0.31,-0.413C0.362,-0.413 0.399,-0.384 0.407,-0.33L0.212,-0.33Z" style="fill-rule:nonzero;"/>
        </g>
        <g transform="matrix(66.6667,0,0,66.6667,726.524,136.59)">
            <path d="M0.06,0L0.237,0L0.237,-0.27C0.237,-0.283 0.25,-0.374 0.342,-0.374C0.401,-0.374 0.434,-0.346 0.434,-0.346L0.508,-0.496C0.508,-0.496 0.462,-0.528 0.396,-0.528C0.295,-0.528 0.239,-0.439 0.239,-0.439L0.237,-0.439L0.237,-0.513L0.06,-0.513L0.06,0Z" style="fill-rule:nonzero;"/>
        </g>
    </g>
</svg>
